# xmcd
#
# Track frame offsets:
#	150
#	19607
#	35002
#	49626
#	67590
#	81248
#	95951
#	113752
#	130088
#	141101
#	154825
#
# Disc length: 2282 seconds
#
# Revision: 1
# Processed by: cddbd v1.5.2PL0 Copyright (c) Steve Scherf et al.
# Submitted via: audiograbber 1.83.01
#
DISCID=8b08e80b
DTITLE=Katja Kaye - On My Way
DYEAR=2001
DGENRE=
TTITLE0=That Makes Two Of Us
TTITLE1=What Are You Doing With My Heart
TTITLE2=Johnny B Goode Got Married
TTITLE3=Beautiful World
TTITLE4=Don't Give Up
TTITLE5=On My Way
TTITLE6=Dr. Honky Tonk
TTITLE7=I Wish I Was A Train
TTITLE8=Instant Love, Just Add Money
TTITLE9=Hey Good Lookin'
TTITLE10=Så Lenger Jeg Lever
EXTD=
EXTT0=
EXTT1=
EXTT2=
EXTT3=
EXTT4=
EXTT5=
EXTT6=
EXTT7=
EXTT8=
EXTT9=
EXTT10=
PLAYORDER=
